G04 ================== begin FILE IDENTIFICATION RECORD ==================*
G04 Layout Name:  SO1L_v2.brd*
G04 Film Name:    BOTTOM*
G04 File Format:  Gerber RS274X*
G04 File Origin:  Cadence Allegro 25.1-S030*
G04 Origin Date:  Sun Aug 30 19:08:48 2026*
G04 *
G04 Layer:  BOARD GEOMETRY/DESIGN_OUTLINE*
G04 Layer:  VIA CLASS/BOTTOM*
G04 Layer:  PIN/BOTTOM*
G04 Layer:  ETCH/BOTTOM*
G04 *
G04 Offset:    (0.0000 0.0000)*
G04 Mirror:    No*
G04 Mode:      Positive*
G04 Rotation:  0*
G04 FullContactRelief:  No*
G04 UndefLineWidth:     0.1000*
G04 ================== end FILE IDENTIFICATION RECORD ====================*
%FSLAX35Y35*MOMM*%
%IR0*IPPOS*OFA0.00000B0.00000*MIA0B0*SFA1.00000B1.00000*%
%ADD10C,.6*%
%ADD15O,1.1X2.1*%
%ADD13O,1.1X2.6*%
%ADD18C,1.05*%
%ADD17C,1.25*%
%ADD14C,1.35*%
%ADD12C,1.45*%
%ADD16R,1.25X1.25*%
%ADD11C,1.8034*%
%ADD19C,.15*%
%ADD20C,.1*%
%ADD27C,.8544*%
%ADD25C,1.3044*%
%ADD26C,1.3504*%
%ADD24C,2.1038*%
%ADD30C,1.5504*%
%ADD29C,1.6044*%
%ADD32C,1.7044*%
%ADD28C,1.6504*%
%ADD31C,1.7504*%
%ADD21O,1.3544X2.3544*%
%ADD23C,2.0578*%
%ADD22O,1.3544X2.8544*%
G75*
%LPD*%
G75*
G36*
G01X19950000Y20925000D02*
X28963430D01*
Y19762500D01*
X27212500D01*
Y16700000D01*
X28963430D01*
Y13932500D01*
X25345000D01*
Y14502500D01*
X24422500D01*
Y13930000D01*
X19950000D01*
Y20925000D01*
G37*
%LPC*%
G75*
G36*
G01X26562890Y19012460D02*
Y19137460D01*
G02X26577910Y19152480I15020J0D01*
G01X26702910D01*
G02X26717930Y19137460I0J-15020D01*
G01Y19012460D01*
G02X26702910Y18997440I-15020J0D01*
G01X26577910D01*
G02X26562890Y19012460I0J15020D01*
G37*
G36*
G01X24786580Y14860950D02*
G02X24790260Y14861250I3664J-22221D01*
G01X24800820D01*
G02X24839800Y14883750I38980J-22515D01*
G02Y14793710I0J-45020D01*
G02X24800820Y14816210I0J45015D01*
G01X24793980D01*
X24793570Y14816140D01*
G02X24789890Y14815840I-3664J22221D01*
G01X24568090D01*
G02X24529110Y14793340I-38980J22515D01*
G02Y14883380I0J45020D01*
G02X24568090Y14860880I0J-45015D01*
G01X24786170D01*
X24786580Y14860950D01*
G37*
G36*
G01X24972440Y14855030D02*
G02X24988360Y14861630I15927J-15917D01*
G01X25184120D01*
G02X25223100Y14884130I38980J-22515D01*
G02Y14794090I0J-45020D01*
G02X25184120Y14816590I0J45015D01*
G01X24997690D01*
X24993020Y14811920D01*
X24993560Y14809240D01*
G02X24994480Y14800210I-44097J-9055D01*
G02X24949460Y14845230I-45020J0D01*
G02X24958490Y14844310I-25J-45017D01*
G01X24961170Y14843770D01*
X24972440Y14855030D01*
G37*
G36*
G01X24073340Y16169810D02*
X24049210D01*
G02X24010230Y16147310I-38980J22515D01*
G02Y16237350I0J45020D01*
G02X24049210Y16214850I0J-45015D01*
G01X24082670D01*
G02X24098590Y16208250I-7J-22517D01*
G01X24622330Y15684520D01*
X26061670D01*
X26077440Y15700290D01*
X26076900Y15702970D01*
G02X26075980Y15712000I44097J9055D01*
G02X26121000Y15666980I45020J0D01*
G02X26111970Y15667900I25J45017D01*
G01X26109290Y15668440D01*
X26086920Y15646080D01*
G02X26071000Y15639480I-15927J15917D01*
G01X24613000D01*
G02X24597080Y15646080I7J22517D01*
G01X24073340Y16169810D01*
G37*
G36*
G01X25335570Y16797380D02*
G02X25329020Y16811820I15919J15926D01*
G02X25306470Y16850830I22467J39010D01*
G02X25396510I45020J0D01*
G02X25383990Y16819680I-45011J0D01*
G03X25384070Y16812570I3669J-3514D01*
G01X25415940Y16780700D01*
X25895960D01*
G02X25911880Y16774100I-7J-22517D01*
G01X25990940Y16695040D01*
G02X25997540Y16679120I-15917J-15927D01*
G01Y16419350D01*
G02X26020040Y16380370I-22515J-38980D01*
G02X25930000I-45020J0D01*
G02X25952500Y16419350I45015J0D01*
G01Y16669790D01*
X25886630Y16735660D01*
X25406610D01*
G02X25390690Y16742260I7J22517D01*
G01X25335570Y16797380D01*
G37*
G36*
G01X25954770Y16833550D02*
X25567870D01*
G02X25528890Y16811050I-38980J22515D01*
G02Y16901090I0J45020D01*
G02X25567870Y16878590I0J-45015D01*
G01X25964100D01*
G02X25980020Y16871990I-7J-22517D01*
G01X26108570Y16743440D01*
G02X26115170Y16727520I-15917J-15927D01*
G01Y16424830D01*
G02X26137670Y16385850I-22515J-38980D01*
G02X26047630I-45020J0D01*
G02X26070130Y16424830I45015J0D01*
G01Y16718190D01*
X25954770Y16833550D01*
G37*
G36*
G01X26051960Y17844380D02*
X25878390D01*
G02X25839410Y17821880I-38980J22515D01*
G02Y17911920I0J45020D01*
G02X25878390Y17889420I0J-45015D01*
G01X26061290D01*
G02X26077210Y17882820I-7J-22517D01*
G01X26187220Y17772810D01*
G02X26193820Y17756890I-15917J-15927D01*
G01Y16525030D01*
X26203330Y16515520D01*
X26460460D01*
G02X26500000Y16539020I39540J-21514D01*
G02Y16448980I0J-45020D01*
G02X26461610Y16470480I0J45024D01*
G01X26194000D01*
G02X26178080Y16477080I7J22517D01*
G01X26155380Y16499780D01*
G02X26148780Y16515700I15917J15927D01*
G01Y17747560D01*
X26051960Y17844380D01*
G37*
G36*
G01X24402030Y17883870D02*
G02X24417950Y17890470I15927J-15917D01*
G01X24670110D01*
G02X24709090Y17912970I38980J-22515D01*
G02Y17822930I0J-45020D01*
G02X24670110Y17845430I0J45015D01*
G01X24427280D01*
X24347520Y17765670D01*
Y16159340D01*
X24684340Y15822520D01*
X25061020D01*
G02X25100000Y15845020I38980J-22515D01*
G02Y15754980I0J-45020D01*
G02X25061020Y15777480I0J45015D01*
G01X24675010D01*
G02X24659090Y15784080I7J22517D01*
G01X24309080Y16134090D01*
G02X24302480Y16150010I15917J15927D01*
G01Y17775000D01*
G02X24309080Y17790920I22517J-7D01*
G01X24402030Y17883870D01*
G37*
G36*
G01X22093560Y17842560D02*
Y17914600D01*
G02X22071060Y17953580I22515J38980D01*
G02X22161100I45020J0D01*
G02X22138600Y17914600I-45015J0D01*
G01Y17842560D01*
G02X22161100Y17803580I-22515J-38980D01*
G02X22071060I-45020J0D01*
G02X22093560Y17842560I45015J0D01*
G37*
G36*
G01X22687010Y18345140D02*
X22488810D01*
G02X22449830Y18322640I-38980J22515D01*
G02Y18412680I0J45020D01*
G02X22488810Y18390180I0J-45015D01*
G01X22691900D01*
G02X22728130Y18408480I36230J-26714D01*
G02Y18318440I0J-45020D01*
G02X22687010Y18345140I0J45014D01*
G37*
G36*
G01X22430060Y18580770D02*
G02X22445980Y18587370I15927J-15917D01*
G01X23062550D01*
G02X23101530Y18609870I38980J-22515D01*
G02Y18519830I0J-45020D01*
G02X23062550Y18542330I0J45015D01*
G01X22455310D01*
X22395140Y18482160D01*
X22395680Y18479480D01*
G02X22396600Y18470450I-44097J-9055D01*
G02X22351580Y18515470I-45020J0D01*
G02X22360610Y18514550I-25J-45017D01*
G01X22363290Y18514010D01*
X22430060Y18580770D01*
G37*
G36*
G01X23111220Y18907540D02*
G03X23121370Y18918130I0J10159D01*
G02X23121330Y18920060I44981J1898D01*
G02X23166350Y18875040I45020J0D01*
G02X23157320Y18875960I25J45017D01*
G01X23154640Y18876500D01*
X23147230Y18869100D01*
G02X23131310Y18862500I-15927J15917D01*
G01X22374480D01*
X22238170Y18726190D01*
X22238710Y18723510D01*
G02X22239630Y18714480I-44097J-9055D01*
G02X22194610Y18759500I-45020J0D01*
G02X22203640Y18758580I-25J-45017D01*
G01X22206320Y18758040D01*
X22349230Y18900940D01*
G02X22365150Y18907540I15927J-15917D01*
G01X23111220D01*
G37*
G36*
G01X22959640Y19173330D02*
Y19185570D01*
G02X22937140Y19224550I22515J38980D01*
G02X23027180I45020J0D01*
G02X23004680Y19185570I-45015J0D01*
G01Y19163510D01*
G02X22998080Y19147590I-22517J7D01*
G01X22985380Y19134890D01*
G02X22969460Y19128290I-15927J15917D01*
G01X22514280D01*
X22114190Y18728200D01*
X22114730Y18725520D01*
G02X22115650Y18716490I-44097J-9055D01*
G02X22070630Y18761510I-45020J0D01*
G02X22079660Y18760590I-25J-45017D01*
G01X22082340Y18760050D01*
X22489030Y19166730D01*
G02X22504950Y19173330I15927J-15917D01*
G01X22959640D01*
G37*
G36*
G01X21220420Y18805110D02*
Y19437340D01*
G02X21197920Y19476320I22515J38980D01*
G02X21287960I45020J0D01*
G02X21265460Y19437340I-45015J0D01*
G01Y18814440D01*
X21286210Y18793690D01*
X21724340D01*
G02X21763320Y18816190I38980J-22515D01*
G02Y18726150I0J-45020D01*
G02X21724340Y18748650I0J45015D01*
G01X21276880D01*
G02X21260960Y18755250I7J22517D01*
G01X21227020Y18789190D01*
G02X21220420Y18805110I15917J15927D01*
G37*
G36*
G01X21038980Y15814980D02*
G02X21000000Y15792480I-38980J22515D01*
G02Y15882520I0J45020D01*
G02X21038980Y15860020I0J-45015D01*
G01X23316690D01*
G02X23332610Y15853420I-7J-22517D01*
G01X23588520Y15597520D01*
X24936020D01*
G02X24975000Y15620020I38980J-22515D01*
G02Y15529980I0J-45020D01*
G02X24936020Y15552480I0J45015D01*
G01X24872910D01*
G03X24866390Y15534530I0J-10159D01*
G02X24882520Y15500000I-28895J-34530D01*
G02X24837500Y15454980I-45020J0D01*
G02X24798520Y15477480I0J45015D01*
G01X23510600D01*
G02X23494680Y15484080I7J22517D01*
G01X23253830Y15724920D01*
X21660660D01*
G02X21621680Y15702420I-38980J22515D01*
G02Y15792460I0J45020D01*
G02X21660660Y15769960I0J-45015D01*
G01X23263160D01*
G02X23279080Y15763360I-7J-22517D01*
G01X23519930Y15522520D01*
X24798520D01*
G02X24808610Y15534530I38988J-22511D01*
G03X24802090Y15552480I-6520J7791D01*
G01X23579190D01*
G02X23563270Y15559080I7J22517D01*
G01X23307360Y15814980D01*
X21038980D01*
G37*
G36*
G01X23260370Y18796470D02*
X23259830Y18799150D01*
G02X23258910Y18808180I44097J9055D01*
G02X23303930Y18763160I45020J0D01*
G02X23294900Y18764080I25J45017D01*
G01X23292220Y18764620D01*
X23224760Y18697170D01*
G02X23208840Y18690570I-15927J15917D01*
G01X22378700D01*
G03X22383160Y18671280I4459J-9130D01*
G01X23328260D01*
G02X23367240Y18693780I38980J-22515D01*
G02Y18603740I0J-45020D01*
G02X23328260Y18626240I0J45015D01*
G01X22368950D01*
X22294790Y18552080D01*
X22295330Y18549400D01*
G02X22296250Y18540370I-44097J-9055D01*
G02X22251230Y18585390I-45020J0D01*
G02X22260260Y18584470I-25J-45017D01*
G01X22262940Y18583930D01*
X22331460Y18652450D01*
G03X22326800Y18669480I-7182J7187D01*
G02X22292940Y18713090I11154J43610D01*
G02X22337960Y18758110I45020J0D01*
G02X22376940Y18735610I0J-45015D01*
G01X23199510D01*
X23260370Y18796470D01*
G37*
G54D27*
X24010230Y16092330D03*
G54D25*
X28052310Y14881030D03*
G54D26*
Y14676030D03*
G54D24*
X21396150Y14657940D03*
G54D30*
X26640410Y20090960D03*
G54D29*
X24718670Y20126470D03*
G54D32*
X20834720Y20228090D03*
G54D28*
X24068670Y20126470D03*
Y20576470D03*
X24718670D03*
G54D31*
X20834720Y20482090D03*
X21088720D03*
X21342720D03*
X21088720Y20228090D03*
X21342720D03*
G54D21*
X25319820Y14651610D03*
X24450820D03*
G54D23*
X20888150Y14657940D03*
G54D22*
X25450320Y14115110D03*
X24320320D03*
%LPD*%
G75*
G54D10*
X19969570Y18929980D03*
X20525000Y17745000D03*
X21000000Y15837500D03*
X20587500Y18460000D03*
X21090000Y17750000D03*
X21115000Y18905000D03*
X21427500Y19082500D03*
X21242940Y19476320D03*
X21621680Y15747440D03*
X21555000Y16105000D03*
X21550000Y17635000D03*
X21710000Y17632500D03*
X21535050Y18400360D03*
X21662170Y18400320D03*
X21661960Y18528000D03*
X21789330Y18400090D03*
X21662110Y18273680D03*
X21763320Y18771170D03*
X21757500Y19200000D03*
X21700000Y19455000D03*
X21937500Y19202500D03*
X22245000Y17970000D03*
X22116080Y17953580D03*
Y17803580D03*
X22351580Y18470450D03*
X22070630Y18716490D03*
X22194610Y18714480D03*
X22367500Y18275000D03*
X22337960Y18713090D03*
X22251230Y18540370D03*
X22365000Y19210000D03*
X22180000Y19685000D03*
X22902500Y14500000D03*
X22662500Y16450000D03*
X22702500Y17282500D03*
X22575000Y17355000D03*
X22449830Y18367660D03*
X22728130Y18363460D03*
X22595000Y19797500D03*
X23082500Y17127500D03*
X23101530Y18564850D03*
X23367240Y18648760D03*
X23166350Y18920060D03*
X23303930Y18808180D03*
X22982160Y19224550D03*
X23685000Y19795000D03*
X24010230Y16192330D03*
Y16092330D03*
X24062500Y18995000D03*
X24587500Y14765000D03*
X24529110Y14838360D03*
X24440000Y15247500D03*
X24709090Y17867950D03*
X25185000Y14765000D03*
X24839800Y14838730D03*
X24949460Y14800210D03*
X25223100Y14839110D03*
X25030000Y15117500D03*
X24975000Y15575000D03*
X24837500Y15500000D03*
X25100000Y15800000D03*
X25217500Y17102500D03*
X24905000Y17740000D03*
X25202120Y17971470D03*
X25327500Y15200000D03*
X25351490Y16850830D03*
X25528890Y16856070D03*
X25667500Y17102500D03*
X25448300Y17727550D03*
X25265000Y17767500D03*
X25350000Y17650000D03*
X25662500Y17767500D03*
X25550000Y17640000D03*
X25447890Y17817550D03*
X25448300Y17907550D03*
X25450000Y19977500D03*
X26121000Y15712000D03*
X25868560Y15918260D03*
X25975850D03*
X26086390Y15919070D03*
X25975000Y15745000D03*
X25868560Y16027980D03*
X25975850D03*
X26086390Y16028790D03*
X25868560Y16133240D03*
X25975850D03*
X26086390Y16134050D03*
X26132500Y16305000D03*
X25975020Y16380370D03*
X26092650Y16385850D03*
X25839410Y17866900D03*
X25877500Y20217500D03*
X26312500Y16087500D03*
X26277500Y16162500D03*
X26500000Y16494000D03*
X26822500Y14815000D03*
G54D20*
G01X19362500Y13929140D02*
Y20925000D01*
X28963430D01*
Y13929000D01*
X25340000D01*
Y14499000D01*
X24422500D01*
Y13929140D01*
X19362500D01*
G54D11*
X20888150Y14657940D03*
X21396150D03*
X28194000Y17526000D03*
Y18034000D03*
G54D12*
X20834720Y20482090D03*
Y20228090D03*
X21088720Y20482090D03*
X21342720D03*
X21088720Y20228090D03*
X21342720D03*
X27656410Y19074960D03*
X28418410D03*
G54D13*
X24320320Y14115110D03*
X25450320D03*
G54D14*
X24068670Y20126470D03*
Y20576470D03*
X24718670Y20126470D03*
Y20576470D03*
G54D15*
X24450820Y14651610D03*
X25319820D03*
G54D16*
X26640410Y19074960D03*
G54D17*
Y20090960D03*
G54D18*
X28052310Y14881030D03*
Y14676030D03*
G54D19*
G01X20888150Y14549970D02*
Y14657940D01*
G01D02*
Y14765910D01*
G01X20780180Y14657940D02*
X20888150D01*
G01D02*
X20996120D01*
G01X24975000Y15575000D02*
X23579190D01*
X23316690Y15837500D01*
X21000000D01*
G01X20834720Y20137790D02*
Y20228090D01*
G01D02*
Y20318390D01*
G01X20744420Y20228090D02*
X20834720D01*
G01D02*
X20925020D01*
G01X21300000Y15614740D02*
X21312700Y15602040D01*
G01X21175000Y15564740D02*
X21187700Y15552040D01*
G01X21242940Y19476320D02*
Y18805110D01*
X21276880Y18771170D01*
X21763320D01*
G01X24837500Y15500000D02*
X23510600D01*
X23263160Y15747440D01*
X21621680D01*
G01X22116080Y17953580D02*
Y17803580D01*
G01X23101530Y18564850D02*
X22445980D01*
X22351580Y18470450D01*
G01X22251230Y18540370D02*
X22359620Y18648760D01*
X23367240D01*
G01X22070630Y18716490D02*
X22504950Y19150810D01*
X22969460D01*
X22982160Y19163510D01*
Y19224550D01*
G01X22194610Y18714480D02*
X22365150Y18885020D01*
X23131310D01*
X23166350Y18920060D01*
G01X22337960Y18713090D02*
X23208840D01*
X23303930Y18808180D01*
G01X22449830Y18367660D02*
X22723930D01*
X22728130Y18363460D01*
G01X24247520Y14115110D02*
X24320320D01*
G01X24010230Y16192330D02*
X24082670D01*
X24613000Y15662000D01*
X26071000D01*
X26121000Y15712000D01*
G01X24010230Y16044530D02*
Y16092330D01*
G01X23962430D02*
X24010230D01*
G01D02*
X24058030D01*
G01X24320320Y13967310D02*
Y14115110D01*
G01D02*
Y14262910D01*
G01Y14115110D02*
X24393120D01*
G01X24450820Y14528810D02*
Y14651610D01*
G01D02*
Y14774410D01*
G01X24378020Y14651610D02*
X24450820D01*
G01D02*
X24523620D01*
G01X24839800Y14838730D02*
X24790260D01*
X24789890Y14838360D01*
X24529110D01*
G01X24709090Y17867950D02*
X24417950D01*
X24325000Y17775000D01*
Y16150010D01*
X24675010Y15800000D01*
X25100000D01*
G01X24718670Y20041170D02*
Y20126470D01*
G01D02*
Y20211770D01*
G01X24633370Y20126470D02*
X24718670D01*
G01D02*
X24803970D01*
G01X25223100Y14839110D02*
X24988360D01*
X24949460Y14800210D01*
G01X25450320Y13967310D02*
Y14115110D01*
G01D02*
Y14262910D01*
G01X25377520Y14115110D02*
X25450320D01*
G01D02*
X25523120D01*
G01X25319820Y14528810D02*
Y14651610D01*
G01D02*
Y14774410D01*
G01X25247020Y14651610D02*
X25319820D01*
G01D02*
X25392620D01*
G01X25351490Y16850830D02*
Y16813300D01*
X25406610Y16758180D01*
X25895960D01*
X25975020Y16679120D01*
Y16380370D01*
G01X26092650Y16385850D02*
Y16727520D01*
X25964100Y16856070D01*
X25528890D01*
G01X25839410Y17866900D02*
X26061290D01*
X26171300Y17756890D01*
Y16515700D01*
X26194000Y16493000D01*
X26499000D01*
X26500000Y16494000D01*
G01X27982010Y14881030D02*
X28052310D01*
G01Y14810730D02*
Y14881030D01*
G01D02*
Y14951330D01*
G01Y14881030D02*
X28122610D01*
M02*
