G04 ================== begin FILE IDENTIFICATION RECORD ==================*
G04 Layout Name:  SO1L_v2.brd*
G04 Film Name:    SMTP*
G04 File Format:  Gerber RS274X*
G04 File Origin:  Cadence Allegro 25.1-S030*
G04 Origin Date:  Sun Aug 30 18:06:00 2026*
G04 *
G04 Layer:  BOARD GEOMETRY/DESIGN_OUTLINE*
G04 Layer:  PACKAGE GEOMETRY/SOLDERMASK_TOP*
G04 Layer:  BOARD GEOMETRY/SOLDERMASK_TOP*
G04 Layer:  VIA CLASS/SOLDERMASK_TOP*
G04 Layer:  PIN/SOLDERMASK_TOP*
G04 *
G04 Offset:    (0.0000 0.0000)*
G04 Mirror:    No*
G04 Mode:      Positive*
G04 Rotation:  0*
G04 FullContactRelief:  No*
G04 UndefLineWidth:     0.1000*
G04 ================== end FILE IDENTIFICATION RECORD ====================*
%FSLAX35Y35*MOMM*%
%IR0*IPPOS*OFA0.00000B0.00000*MIA0B0*SFA1.00000B1.00000*%
%ADD36R,1.X.75*%
%ADD29R,1.X.85*%
%ADD11C,.7*%
%ADD31C,.65*%
%ADD39R,.89X2.45*%
%ADD32R,.85X.85*%
%ADD25R,.94X2.99*%
%ADD38R,.95X.95*%
%ADD20R,.9906X1.1684*%
%ADD34O,1.2X2.2*%
%ADD30O,1.2X2.7*%
%ADD27R,3.3X2.2*%
%AMMACRO22*
4,1,40,-.325,.1,
-.325,-.1,
-.32424,-.108682,
-.321985,-.117101,
-.318301,-.125,
-.313302,-.132139,
-.307139,-.138302,
-.3,-.143301,
-.292101,-.146985,
-.283682,-.14924,
-.275,-.15,
.275,-.15,
.283682,-.14924,
.292101,-.146985,
.3,-.143301,
.307139,-.138302,
.313302,-.132139,
.318301,-.125,
.321985,-.117101,
.32424,-.108682,
.325,-.1,
.325,.1,
.32424,.108682,
.321985,.117101,
.318301,.125,
.313302,.132139,
.307139,.138302,
.3,.143301,
.292101,.146985,
.283682,.14924,
.275,.15,
-.275,.15,
-.283682,.14924,
-.292101,.146985,
-.3,.143301,
-.307139,.138302,
-.313302,.132139,
-.318301,.125,
-.321985,.117101,
-.32424,.108682,
-.325,.1,
0.0*
%
%ADD22MACRO22*%
%AMMACRO21*
4,1,40,.1,.325,
-.1,.325,
-.108682,.32424,
-.117101,.321985,
-.125,.318301,
-.132139,.313302,
-.138302,.307139,
-.143301,.3,
-.146985,.292101,
-.14924,.283682,
-.15,.275,
-.15,-.275,
-.14924,-.283682,
-.146985,-.292101,
-.143301,-.3,
-.138302,-.307139,
-.132139,-.313302,
-.125,-.318301,
-.117101,-.321985,
-.108682,-.32424,
-.1,-.325,
.1,-.325,
.108682,-.32424,
.117101,-.321985,
.125,-.318301,
.132139,-.313302,
.138302,-.307139,
.143301,-.3,
.146985,-.292101,
.14924,-.283682,
.15,-.275,
.15,.275,
.14924,.283682,
.146985,.292101,
.143301,.3,
.138302,.307139,
.132139,.313302,
.125,.318301,
.117101,.321985,
.108682,.32424,
.1,.325,
0.0*
%
%ADD21MACRO21*%
%ADD48C,1.1*%
%ADD26R,2.15X4.4*%
%ADD24R,1.15X1.35*%
%ADD10R,.6X.6*%
%ADD46C,1.3*%
%ADD40R,.55X.3*%
%ADD33C,1.4*%
%ADD19C,1.5*%
%ADD47R,4.0632X2.051*%
%ADD44R,1.65X2.35*%
%ADD43O,.85X.35*%
%ADD42O,.35X.85*%
%ADD45R,1.3X1.3*%
%ADD35R,.38X.8*%
%ADD16R,1.05X1.8534*%
%ADD14R,1.95X1.65*%
%ADD37R,.7X.87*%
%ADD23R,3.5X3.5*%
%ADD18R,.56X.78*%
%ADD13C,1.8534*%
%ADD41R,2.85X2.85*%
%ADD17R,.9144X.6096*%
%ADD28R,.8128X.7564*%
%ADD15R,.939X.8596*%
%ADD12R,.8596X.939*%
%ADD49C,.1*%
%ADD50R,.6666X.2*%
G75*
%LPD*%
G75*
G36*
G01X22281630Y17277350D02*
Y17244850D01*
X22288300D01*
Y17257560D01*
X22361630D01*
Y17264750D01*
X22288300D01*
Y17277350D01*
X22281630D01*
G37*
G36*
G01Y17301310D02*
Y17282660D01*
X22361630D01*
Y17301310D01*
X22361590Y17302620D01*
X22361310Y17304780D01*
X22360760Y17306790D01*
X22359960Y17308650D01*
X22358890Y17310370D01*
X22357570Y17311930D01*
X22356560Y17312900D01*
X22354960Y17314090D01*
X22353220Y17315010D01*
X22351340Y17315680D01*
X22349320Y17316070D01*
X22347150Y17316200D01*
X22296110D01*
X22294610Y17316140D01*
X22292540Y17315830D01*
X22290620Y17315250D01*
X22288830Y17314410D01*
X22287190Y17313300D01*
X22285690Y17311930D01*
X22284900Y17311050D01*
X22283720Y17309390D01*
X22282810Y17307590D01*
X22282150Y17305650D01*
X22281760Y17303550D01*
X22281630Y17301310D01*
G37*
G36*
G01Y17357870D02*
Y17335060D01*
X22281750Y17334150D01*
X22282170Y17333230D01*
X22282880Y17332390D01*
X22283880Y17331610D01*
X22285170Y17330890D01*
X22286200Y17330490D01*
X22287320Y17330140D01*
X22289420Y17329690D01*
X22291760Y17329420D01*
X22294340Y17329330D01*
X22348920D01*
X22349370D01*
X22351910Y17329450D01*
X22354210Y17329750D01*
X22356270Y17330230D01*
X22358090Y17330890D01*
X22359290Y17331550D01*
X22360320Y17332330D01*
X22361050Y17333170D01*
X22361480Y17334080D01*
X22361630Y17335060D01*
Y17357870D01*
X22361500Y17358840D01*
X22361080Y17359770D01*
X22360370Y17360610D01*
X22359370Y17361370D01*
X22358090Y17362040D01*
X22357720Y17362210D01*
X22355870Y17362860D01*
X22353790Y17363330D01*
X22351470Y17363610D01*
X22348920Y17363710D01*
X22294340D01*
X22293760Y17363700D01*
X22291260Y17363570D01*
X22289000Y17363250D01*
X22286970Y17362740D01*
X22285170Y17362040D01*
X22283930Y17361400D01*
X22282930Y17360640D01*
X22282210Y17359800D01*
X22281770Y17358880D01*
X22281630Y17357870D01*
G37*
G36*
G01X22400590Y17278180D02*
Y17271200D01*
X22462260Y17261100D01*
X22463390Y17261000D01*
X22464420Y17260910D01*
X22465990Y17260820D01*
X22467260Y17260790D01*
X22462260Y17260480D01*
X22400590Y17250370D01*
Y17243180D01*
X22480590Y17257250D01*
Y17264120D01*
X22400590Y17278180D01*
G37*
G36*
G01Y17305060D02*
Y17286410D01*
X22480590D01*
Y17305060D01*
X22480550Y17306370D01*
X22480270Y17308530D01*
X22479720Y17310540D01*
X22478920Y17312400D01*
X22477850Y17314120D01*
X22476530Y17315680D01*
X22475520Y17316650D01*
X22473920Y17317840D01*
X22472180Y17318760D01*
X22470300Y17319430D01*
X22468280Y17319820D01*
X22466110Y17319950D01*
X22415070D01*
X22413570Y17319890D01*
X22411500Y17319580D01*
X22409580Y17319000D01*
X22407790Y17318160D01*
X22406150Y17317050D01*
X22404650Y17315680D01*
X22403860Y17314800D01*
X22402680Y17313140D01*
X22401770Y17311340D01*
X22401110Y17309400D01*
X22400720Y17307300D01*
X22400590Y17305060D01*
G37*
G36*
G01Y17351730D02*
Y17333080D01*
X22480590D01*
Y17351730D01*
X22480550Y17353040D01*
X22480270Y17355200D01*
X22479720Y17357210D01*
X22478920Y17359070D01*
X22477850Y17360790D01*
X22476530Y17362350D01*
X22475520Y17363320D01*
X22473920Y17364510D01*
X22472180Y17365430D01*
X22470300Y17366100D01*
X22468280Y17366490D01*
X22466110Y17366620D01*
X22415070D01*
X22413570Y17366560D01*
X22411500Y17366250D01*
X22409580Y17365670D01*
X22407790Y17364830D01*
X22406150Y17363720D01*
X22404650Y17362350D01*
X22403860Y17361470D01*
X22402680Y17359810D01*
X22401770Y17358010D01*
X22401110Y17356070D01*
X22400720Y17353970D01*
X22400590Y17351730D01*
G37*
G36*
G01Y17405790D02*
Y17385270D01*
X22400710Y17384360D01*
X22401130Y17383450D01*
X22401840Y17382600D01*
X22402840Y17381820D01*
X22404130Y17381110D01*
X22404500Y17380940D01*
X22406350Y17380280D01*
X22408430Y17379810D01*
X22410750Y17379530D01*
X22413300Y17379440D01*
X22422570D01*
X22424270Y17379580D01*
X22425940Y17380010D01*
X22427520Y17380720D01*
X22429030Y17381730D01*
X22457260Y17404230D01*
X22473920D01*
Y17386630D01*
X22460590D01*
Y17379440D01*
X22467880D01*
X22468460D01*
X22470960Y17379580D01*
X22473220Y17379900D01*
X22475250Y17380410D01*
X22477050Y17381110D01*
X22478250Y17381760D01*
X22479280Y17382540D01*
X22480010Y17383380D01*
X22480440Y17384290D01*
X22480590Y17385270D01*
Y17405790D01*
X22480460Y17406760D01*
X22480040Y17407690D01*
X22479330Y17408530D01*
X22478330Y17409290D01*
X22477050Y17409960D01*
X22476020Y17410370D01*
X22474900Y17410710D01*
X22472800Y17411160D01*
X22470460Y17411430D01*
X22467880Y17411520D01*
X22458400D01*
X22457530Y17411490D01*
X22456670Y17411380D01*
X22455040Y17410950D01*
X22453500Y17410230D01*
X22452050Y17409230D01*
X22423920Y17386630D01*
X22407260D01*
Y17404230D01*
X22427260D01*
Y17411520D01*
X22413300D01*
X22412850D01*
X22410310Y17411400D01*
X22408010Y17411100D01*
X22405950Y17410620D01*
X22404130Y17409960D01*
X22402890Y17409320D01*
X22401890Y17408560D01*
X22401170Y17407720D01*
X22400730Y17406800D01*
X22400590Y17405790D01*
G37*
G36*
G01X22159480Y17277540D02*
Y17245040D01*
X22166150D01*
Y17257750D01*
X22239480D01*
Y17264940D01*
X22166150D01*
Y17277540D01*
X22159480D01*
G37*
G36*
G01Y17309620D02*
Y17288580D01*
X22159600Y17287670D01*
X22160020Y17286750D01*
X22160730Y17285910D01*
X22161730Y17285130D01*
X22163020Y17284410D01*
X22164050Y17284010D01*
X22165170Y17283660D01*
X22167270Y17283210D01*
X22169610Y17282940D01*
X22172190Y17282850D01*
X22226770D01*
X22227220D01*
X22229760Y17282970D01*
X22232060Y17283270D01*
X22234120Y17283750D01*
X22235940Y17284410D01*
X22237140Y17285070D01*
X22238170Y17285850D01*
X22238900Y17286690D01*
X22239330Y17287600D01*
X22239480Y17288580D01*
Y17309620D01*
X22239360Y17310530D01*
X22238940Y17311450D01*
X22238230Y17312300D01*
X22237230Y17313080D01*
X22235940Y17313790D01*
X22235570Y17313960D01*
X22233720Y17314610D01*
X22231640Y17315080D01*
X22229320Y17315360D01*
X22226770Y17315460D01*
X22219480D01*
Y17308170D01*
X22232810D01*
Y17290040D01*
X22166150D01*
Y17308170D01*
X22186150D01*
Y17315460D01*
X22172190D01*
X22171610Y17315450D01*
X22169110Y17315320D01*
X22166850Y17315000D01*
X22164820Y17314490D01*
X22163020Y17313790D01*
X22161820Y17313130D01*
X22160790Y17312360D01*
X22160060Y17311520D01*
X22159630Y17310600D01*
X22159480Y17309620D01*
G37*
G36*
G01Y17361710D02*
Y17353790D01*
X22193540Y17336710D01*
X22159480D01*
Y17329520D01*
X22239480D01*
Y17336710D01*
X22199270D01*
X22239480Y17355560D01*
Y17363480D01*
X22196150Y17343270D01*
X22160000Y17361710D01*
X22159480D01*
G37*
G36*
G01Y17396290D02*
Y17375250D01*
X22159600Y17374340D01*
X22160020Y17373420D01*
X22160730Y17372580D01*
X22161730Y17371800D01*
X22163020Y17371080D01*
X22164050Y17370680D01*
X22165170Y17370330D01*
X22167270Y17369880D01*
X22169610Y17369610D01*
X22172190Y17369520D01*
X22226770D01*
X22227220D01*
X22229760Y17369640D01*
X22232060Y17369940D01*
X22234120Y17370420D01*
X22235940Y17371080D01*
X22237140Y17371740D01*
X22238170Y17372520D01*
X22238900Y17373360D01*
X22239330Y17374270D01*
X22239480Y17375250D01*
Y17396290D01*
X22239360Y17397200D01*
X22238940Y17398120D01*
X22238230Y17398970D01*
X22237230Y17399750D01*
X22235940Y17400460D01*
X22235570Y17400630D01*
X22233720Y17401280D01*
X22231640Y17401750D01*
X22229320Y17402030D01*
X22226770Y17402130D01*
X22219480D01*
Y17394840D01*
X22232810D01*
Y17376710D01*
X22166150D01*
Y17394840D01*
X22186150D01*
Y17402130D01*
X22172190D01*
X22171610Y17402120D01*
X22169110Y17401990D01*
X22166850Y17401670D01*
X22164820Y17401160D01*
X22163020Y17400460D01*
X22161820Y17399800D01*
X22160790Y17399030D01*
X22160060Y17398190D01*
X22159630Y17397270D01*
X22159480Y17396290D01*
G37*
G36*
G01X22539900Y16402920D02*
Y16381460D01*
X22540020Y16380550D01*
X22540440Y16379630D01*
X22541150Y16378790D01*
X22542150Y16378010D01*
X22543440Y16377290D01*
X22544470Y16376890D01*
X22545590Y16376540D01*
X22547690Y16376090D01*
X22550030Y16375820D01*
X22552610Y16375730D01*
X22607190D01*
X22607640D01*
X22610180Y16375850D01*
X22612480Y16376150D01*
X22614540Y16376630D01*
X22616360Y16377290D01*
X22617560Y16377950D01*
X22618590Y16378730D01*
X22619320Y16379570D01*
X22619750Y16380480D01*
X22619900Y16381460D01*
Y16402920D01*
X22619770Y16403840D01*
X22619350Y16404740D01*
X22618640Y16405560D01*
X22617650Y16406310D01*
X22616360Y16406980D01*
X22615990Y16407150D01*
X22614140Y16407810D01*
X22612060Y16408270D01*
X22609740Y16408560D01*
X22607190Y16408650D01*
X22579900D01*
Y16392710D01*
X22586570D01*
Y16401360D01*
X22613230D01*
Y16382920D01*
X22546570D01*
Y16401360D01*
X22566570D01*
Y16408650D01*
X22552610D01*
X22552030Y16408640D01*
X22549530Y16408510D01*
X22547270Y16408190D01*
X22545240Y16407680D01*
X22543440Y16406980D01*
X22542220Y16406350D01*
X22541210Y16405610D01*
X22540480Y16404790D01*
X22540050Y16403890D01*
X22539900Y16402920D01*
G37*
G36*
G01Y16455940D02*
Y16449170D01*
X22597710D01*
X22539900Y16427820D01*
Y16422400D01*
X22619900D01*
Y16429170D01*
X22561050D01*
X22619900Y16450940D01*
Y16455940D01*
X22539900D01*
G37*
G36*
G01Y16487720D02*
Y16469070D01*
X22619900D01*
Y16487720D01*
X22619860Y16489030D01*
X22619580Y16491190D01*
X22619030Y16493200D01*
X22618230Y16495060D01*
X22617160Y16496780D01*
X22615840Y16498340D01*
X22614830Y16499310D01*
X22613230Y16500500D01*
X22611490Y16501420D01*
X22609610Y16502090D01*
X22607590Y16502480D01*
X22605420Y16502610D01*
X22554380D01*
X22552880Y16502550D01*
X22550810Y16502240D01*
X22548890Y16501660D01*
X22547100Y16500820D01*
X22545460Y16499710D01*
X22543960Y16498340D01*
X22543170Y16497460D01*
X22541990Y16495800D01*
X22541080Y16494000D01*
X22540420Y16492060D01*
X22540030Y16489960D01*
X22539900Y16487720D01*
G37*
G36*
G01X22700460Y16456770D02*
Y16450000D01*
X22758270D01*
X22700460Y16428650D01*
Y16423230D01*
X22780460D01*
Y16430000D01*
X22721610D01*
X22780460Y16451770D01*
Y16456770D01*
X22700460D01*
G37*
G36*
G01Y16496670D02*
Y16475630D01*
X22700580Y16474720D01*
X22701000Y16473800D01*
X22701710Y16472960D01*
X22702710Y16472180D01*
X22704000Y16471460D01*
X22705030Y16471060D01*
X22706150Y16470710D01*
X22708250Y16470260D01*
X22710590Y16469990D01*
X22713170Y16469900D01*
X22767750D01*
X22768200D01*
X22770740Y16470020D01*
X22773040Y16470320D01*
X22775100Y16470800D01*
X22776920Y16471460D01*
X22778120Y16472120D01*
X22779150Y16472900D01*
X22779880Y16473740D01*
X22780310Y16474650D01*
X22780460Y16475630D01*
Y16496670D01*
X22780340Y16497580D01*
X22779920Y16498500D01*
X22779210Y16499350D01*
X22778210Y16500130D01*
X22776920Y16500840D01*
X22776550Y16501010D01*
X22774700Y16501660D01*
X22772620Y16502130D01*
X22770300Y16502410D01*
X22767750Y16502510D01*
X22760460D01*
Y16495220D01*
X22773790D01*
Y16477090D01*
X22707130D01*
Y16495220D01*
X22727130D01*
Y16502510D01*
X22713170D01*
X22712590Y16502500D01*
X22710090Y16502370D01*
X22707830Y16502050D01*
X22705800Y16501540D01*
X22704000Y16500840D01*
X22702800Y16500180D01*
X22701770Y16499410D01*
X22701040Y16498570D01*
X22700610Y16497650D01*
X22700460Y16496670D01*
G37*
G36*
G01X22601640Y17468550D02*
X22580180D01*
X22579270Y17468430D01*
X22578350Y17468010D01*
X22577510Y17467300D01*
X22576730Y17466300D01*
X22576010Y17465010D01*
X22575610Y17463980D01*
X22575260Y17462860D01*
X22574810Y17460760D01*
X22574540Y17458420D01*
X22574450Y17455840D01*
Y17401260D01*
Y17400810D01*
X22574570Y17398270D01*
X22574870Y17395970D01*
X22575350Y17393910D01*
X22576010Y17392090D01*
X22576670Y17390890D01*
X22577450Y17389860D01*
X22578290Y17389130D01*
X22579200Y17388700D01*
X22580180Y17388550D01*
X22601640D01*
X22602560Y17388680D01*
X22603460Y17389100D01*
X22604280Y17389810D01*
X22605030Y17390800D01*
X22605700Y17392090D01*
X22605870Y17392460D01*
X22606530Y17394310D01*
X22606990Y17396390D01*
X22607280Y17398710D01*
X22607370Y17401260D01*
Y17428550D01*
X22591430D01*
Y17421880D01*
X22600080D01*
Y17395220D01*
X22581640D01*
Y17461880D01*
X22600080D01*
Y17441880D01*
X22607370D01*
Y17455840D01*
X22607360Y17456420D01*
X22607230Y17458920D01*
X22606910Y17461180D01*
X22606400Y17463210D01*
X22605700Y17465010D01*
X22605070Y17466230D01*
X22604330Y17467240D01*
X22603510Y17467970D01*
X22602610Y17468400D01*
X22601640Y17468550D01*
G37*
G36*
G01X22654660D02*
X22647890D01*
Y17410740D01*
X22626540Y17468550D01*
X22621120D01*
Y17388550D01*
X22627890D01*
Y17447400D01*
X22649660Y17388550D01*
X22654660D01*
Y17468550D01*
G37*
G36*
G01X22686440D02*
X22667790D01*
Y17388550D01*
X22686440D01*
X22687750Y17388590D01*
X22689910Y17388870D01*
X22691920Y17389420D01*
X22693780Y17390220D01*
X22695500Y17391290D01*
X22697060Y17392610D01*
X22698030Y17393620D01*
X22699220Y17395220D01*
X22700140Y17396960D01*
X22700810Y17398840D01*
X22701200Y17400860D01*
X22701330Y17403030D01*
Y17454070D01*
X22701270Y17455570D01*
X22700960Y17457640D01*
X22700380Y17459560D01*
X22699540Y17461350D01*
X22698430Y17462990D01*
X22697060Y17464490D01*
X22696180Y17465280D01*
X22694520Y17466460D01*
X22692720Y17467370D01*
X22690780Y17468030D01*
X22688680Y17468420D01*
X22686440Y17468550D01*
G37*
%LPC*%
G75*
G36*
G01X22288300Y17289850D02*
X22354960D01*
Y17299540D01*
X22354840Y17301390D01*
X22354470Y17303080D01*
X22353850Y17304590D01*
X22352980Y17305940D01*
X22352670Y17306310D01*
X22351550Y17307360D01*
X22350280Y17308150D01*
X22348840Y17308690D01*
X22347250Y17308970D01*
X22346210Y17309020D01*
X22296940D01*
X22295290Y17308890D01*
X22293780Y17308490D01*
X22292420Y17307840D01*
X22291200Y17306920D01*
X22290690Y17306410D01*
X22289710Y17305180D01*
X22288990Y17303790D01*
X22288520Y17302240D01*
X22288310Y17300540D01*
X22288300Y17299950D01*
Y17289850D01*
G37*
G36*
G01X22407260Y17293600D02*
X22473920D01*
Y17303290D01*
X22473800Y17305140D01*
X22473430Y17306830D01*
X22472810Y17308340D01*
X22471940Y17309690D01*
X22471630Y17310060D01*
X22470510Y17311110D01*
X22469240Y17311900D01*
X22467800Y17312440D01*
X22466210Y17312720D01*
X22465170Y17312770D01*
X22415900D01*
X22414250Y17312640D01*
X22412740Y17312240D01*
X22411380Y17311590D01*
X22410160Y17310670D01*
X22409650Y17310160D01*
X22408670Y17308930D01*
X22407950Y17307540D01*
X22407480Y17305990D01*
X22407270Y17304290D01*
X22407260Y17303700D01*
Y17293600D01*
G37*
G36*
G01Y17340270D02*
X22473920D01*
Y17349960D01*
X22473800Y17351810D01*
X22473430Y17353500D01*
X22472810Y17355010D01*
X22471940Y17356360D01*
X22471630Y17356730D01*
X22470510Y17357780D01*
X22469240Y17358570D01*
X22467800Y17359110D01*
X22466210Y17359390D01*
X22465170Y17359440D01*
X22415900D01*
X22414250Y17359310D01*
X22412740Y17358910D01*
X22411380Y17358260D01*
X22410160Y17357340D01*
X22409650Y17356830D01*
X22408670Y17355600D01*
X22407950Y17354210D01*
X22407480Y17352660D01*
X22407270Y17350960D01*
X22407260Y17350370D01*
Y17340270D01*
G37*
G36*
G01X22546570Y16476260D02*
X22613230D01*
Y16485950D01*
X22613110Y16487800D01*
X22612740Y16489490D01*
X22612120Y16491000D01*
X22611250Y16492350D01*
X22610940Y16492720D01*
X22609820Y16493770D01*
X22608550Y16494560D01*
X22607110Y16495100D01*
X22605520Y16495380D01*
X22604480Y16495430D01*
X22555210D01*
X22553560Y16495300D01*
X22552050Y16494900D01*
X22550690Y16494250D01*
X22549470Y16493330D01*
X22548960Y16492820D01*
X22547980Y16491590D01*
X22547260Y16490200D01*
X22546790Y16488650D01*
X22546580Y16486950D01*
X22546570Y16486360D01*
Y16476260D01*
G37*
G36*
G01X22674980Y17461880D02*
Y17395220D01*
X22684670D01*
X22686520Y17395340D01*
X22688210Y17395710D01*
X22689720Y17396330D01*
X22691070Y17397200D01*
X22691440Y17397510D01*
X22692490Y17398630D01*
X22693280Y17399900D01*
X22693820Y17401340D01*
X22694100Y17402930D01*
X22694150Y17403970D01*
Y17453240D01*
X22694020Y17454890D01*
X22693620Y17456400D01*
X22692970Y17457760D01*
X22692050Y17458980D01*
X22691540Y17459490D01*
X22690310Y17460470D01*
X22688920Y17461190D01*
X22687370Y17461660D01*
X22685670Y17461870D01*
X22685080Y17461880D01*
X22674980D01*
G37*
G54D50*
X22321630Y17346520D03*
%LPD*%
G75*
G54D10*
X19975000Y18721980D03*
G54D20*
X21424850Y17177920D03*
Y17312920D03*
G54D11*
X20525000Y17745000D03*
X21000000Y15837500D03*
X20587500Y18460000D03*
X21090000Y17750000D03*
X21115000Y18905000D03*
X21427500Y19082500D03*
X21242940Y19476320D03*
X21621680Y15747440D03*
X21555000Y16105000D03*
X21550000Y17635000D03*
X21710000Y17632500D03*
X21763320Y18771170D03*
X21757500Y19200000D03*
X21700000Y19455000D03*
X21937500Y19202500D03*
X22245000Y17970000D03*
X22116080Y17953580D03*
Y17803580D03*
X22351580Y18470450D03*
X22070630Y18716490D03*
X22194610Y18714480D03*
X22367500Y18275000D03*
X22337960Y18713090D03*
X22251230Y18540370D03*
X22365000Y19210000D03*
X22180000Y19685000D03*
X22902500Y14500000D03*
X22662500Y16450000D03*
X22702500Y17282500D03*
X22575000Y17355000D03*
X22449830Y18367660D03*
X22728130Y18363460D03*
X22595000Y19797500D03*
X23082500Y17127500D03*
X23101530Y18564850D03*
X23367240Y18648760D03*
X23166350Y18920060D03*
X23303930Y18808180D03*
X22982160Y19224550D03*
X23685000Y19795000D03*
X24062500Y18995000D03*
X24587500Y14765000D03*
X24529110Y14838360D03*
X24440000Y15247500D03*
X24709090Y17867950D03*
X25185000Y14765000D03*
X24839800Y14838730D03*
X24949460Y14800210D03*
X25223100Y14839110D03*
X25030000Y15117500D03*
X24975000Y15575000D03*
X24837500Y15500000D03*
X25100000Y15800000D03*
X25217500Y17102500D03*
X24905000Y17740000D03*
X25202120Y17971470D03*
X25327500Y15200000D03*
X25351490Y16850830D03*
X25528890Y16856070D03*
X25667500Y17102500D03*
X25265000Y17767500D03*
X25350000Y17650000D03*
X25662500Y17767500D03*
X25550000Y17640000D03*
X25450000Y19977500D03*
X26121000Y15712000D03*
X25975000Y15745000D03*
X26132500Y16305000D03*
X25975020Y16380370D03*
X26092650Y16385850D03*
X25839410Y17866900D03*
X25877500Y20217500D03*
X26312500Y16087500D03*
X26277500Y16162500D03*
X26500000Y16494000D03*
X26822500Y14815000D03*
G54D12*
X20352870Y18723570D03*
X20223650D03*
X22117780Y18275650D03*
X22247000D03*
X22116080Y18101280D03*
X22245300D03*
G54D21*
X21487170Y18160320D03*
Y18640320D03*
X21837170Y18160320D03*
X21787170D03*
X21737170D03*
X21687170D03*
X21637170D03*
X21587170D03*
X21537170D03*
Y18640320D03*
X21587170D03*
X21637170D03*
X21687170D03*
X21737170D03*
X21787170D03*
X21837170D03*
G54D30*
X24320320Y14115110D03*
X25450320D03*
G54D13*
X20888150Y14657940D03*
X21396150D03*
X28194000Y17526000D03*
Y18034000D03*
G54D40*
X25550000Y17767610D03*
Y17717610D03*
X25350000D03*
Y17767610D03*
X25550000Y17917610D03*
Y17867610D03*
Y17817610D03*
X25350000D03*
Y17867610D03*
Y17917610D03*
G54D22*
X21422170Y18225320D03*
Y18275320D03*
Y18325320D03*
Y18375320D03*
Y18425320D03*
Y18475320D03*
Y18525320D03*
Y18575320D03*
X21902170Y18225320D03*
Y18575320D03*
Y18525320D03*
Y18475320D03*
Y18425320D03*
Y18375320D03*
Y18325320D03*
Y18275320D03*
G54D31*
X24010230Y16192330D03*
Y16092330D03*
G54D41*
X25975850Y16027980D03*
G54D23*
X21662170Y18400320D03*
G54D14*
X20865850Y16375220D03*
X21265850D03*
G54D32*
X24310000Y19143110D03*
X24500000D03*
X25972790Y20225170D03*
Y20415170D03*
G54D15*
X20951290Y17750000D03*
X20701290Y17745780D03*
X20951290Y17879220D03*
X20701290Y17875000D03*
X20589470Y18723910D03*
Y18594690D03*
X21117320Y18653680D03*
Y18782900D03*
X21325000Y18950000D03*
Y19079220D03*
X21554860Y16245420D03*
Y16374640D03*
X21550690Y17787680D03*
X21709000Y17790120D03*
X21550690Y17916900D03*
X21709000Y17919340D03*
X21943130Y18958930D03*
Y19088150D03*
X21760270Y18958930D03*
Y19088150D03*
X22368320Y18958930D03*
Y19088150D03*
X23082780Y16898940D03*
Y17028160D03*
X25021910Y17738980D03*
Y17868200D03*
X26692820Y14685300D03*
Y14814520D03*
G54D42*
X26075850Y15827980D03*
X26025850D03*
X25975850D03*
X25925850D03*
X25875850D03*
Y16227980D03*
X25925850D03*
X25975850D03*
X26025850D03*
X26075850D03*
G54D33*
X24068670Y20126470D03*
Y20576470D03*
X24718670Y20126470D03*
Y20576470D03*
G54D24*
X21848130Y19456980D03*
Y19686980D03*
X22038130D03*
Y19456980D03*
G54D16*
X20701290Y18175000D03*
X20951290D03*
G54D43*
X25775850Y15927980D03*
Y15977980D03*
Y16027980D03*
Y16077980D03*
Y16127980D03*
X26175850D03*
Y16077980D03*
Y16027980D03*
Y15977980D03*
Y15927980D03*
G54D34*
X24450820Y14651610D03*
X25319820D03*
G54D25*
X22193910Y16668000D03*
X22320910D03*
X22447910D03*
X22193910Y17075000D03*
X22320910D03*
X22447910D03*
X22574910Y16668000D03*
X22701910D03*
X22574910Y17075000D03*
X22701910D03*
G54D17*
X20790490Y18723620D03*
X20914950D03*
G54D35*
X24660320Y14552000D03*
X24710320D03*
X24760320D03*
X24735320Y14682000D03*
X24685320D03*
X24635320D03*
X24585320D03*
X24810320Y14552000D03*
X24860320D03*
X24910320D03*
X24960320D03*
X25010320D03*
X25060320D03*
X25110320D03*
X25185320Y14682000D03*
X25135320D03*
X25085320D03*
X25035320D03*
X24985320D03*
X24935320D03*
X24835320D03*
X24785320D03*
G54D44*
X26075170Y19136120D03*
Y19536120D03*
G54D26*
X22682350Y14500570D03*
Y15420570D03*
G54D18*
X20925090Y18524910D03*
X21017090D03*
G54D45*
X26640410Y19074960D03*
G54D27*
X22854260Y18649380D03*
Y18959380D03*
G54D36*
X24572820Y14552000D03*
X25197820D03*
G54D28*
X22700830Y19795770D03*
Y19950150D03*
X23323680Y17052170D03*
Y16897790D03*
X23165240Y20444630D03*
Y20290250D03*
X23705070Y19143110D03*
Y18988730D03*
X23580250Y19790880D03*
Y19945260D03*
X23942570Y19143110D03*
Y18988730D03*
X24440550Y14950010D03*
Y15104390D03*
X25326790Y14955880D03*
Y15110260D03*
X25351040Y16952670D03*
Y17107050D03*
X25528100Y16952670D03*
Y17107050D03*
X25445520Y20089510D03*
Y20422490D03*
Y20576870D03*
Y20243890D03*
G54D37*
X24757650Y15116400D03*
X24922650D03*
G54D19*
X20834720Y20482090D03*
Y20228090D03*
X21088720Y20482090D03*
X21342720D03*
X21088720Y20228090D03*
X21342720D03*
X27656410Y19074960D03*
X28418410D03*
G54D46*
X26640410Y20090960D03*
G54D47*
X26863980Y16492780D03*
Y16764000D03*
G54D38*
X24405000Y19343110D03*
X26172790Y20320170D03*
G54D29*
X23303930Y19944880D03*
Y19784880D03*
X22982050Y19948790D03*
Y19788790D03*
G54D48*
X28052310Y14881030D03*
Y14676030D03*
G54D39*
X25450000Y17817610D03*
G54D49*
G01X19362500Y13929140D02*
Y20925000D01*
X28963430D01*
Y13929000D01*
X25340000D01*
Y14499000D01*
X24422500D01*
Y13929140D01*
X19362500D01*
M02*
