G04 ================== begin FILE IDENTIFICATION RECORD ==================*
G04 Layout Name:  SO1L_v2.brd*
G04 Film Name:    SMTP*
G04 File Format:  Gerber RS274X*
G04 File Origin:  Cadence Allegro 25.1-S030*
G04 Origin Date:  Sun Aug 30 19:08:48 2026*
G04 *
G04 Layer:  BOARD GEOMETRY/DESIGN_OUTLINE*
G04 Layer:  PACKAGE GEOMETRY/SOLDERMASK_TOP*
G04 Layer:  BOARD GEOMETRY/SOLDERMASK_TOP*
G04 Layer:  VIA CLASS/SOLDERMASK_TOP*
G04 Layer:  PIN/SOLDERMASK_TOP*
G04 *
G04 Offset:    (0.0000 0.0000)*
G04 Mirror:    No*
G04 Mode:      Positive*
G04 Rotation:  0*
G04 FullContactRelief:  No*
G04 UndefLineWidth:     0.1000*
G04 ================== end FILE IDENTIFICATION RECORD ====================*
%FSLAX35Y35*MOMM*%
%IR0*IPPOS*OFA0.00000B0.00000*MIA0B0*SFA1.00000B1.00000*%
%ADD36R,1.X.75*%
%ADD29R,1.X.85*%
%ADD11C,.7*%
%ADD31C,.65*%
%ADD39R,.89X2.45*%
%ADD32R,.85X.85*%
%ADD25R,.94X2.99*%
%ADD38R,.95X.95*%
%ADD20R,.9906X1.1684*%
%ADD34O,1.2X2.2*%
%ADD30O,1.2X2.7*%
%ADD27R,3.3X2.2*%
%AMMACRO22*
4,1,40,-.325,.1,
-.325,-.1,
-.32424,-.108682,
-.321985,-.117101,
-.318301,-.125,
-.313302,-.132139,
-.307139,-.138302,
-.3,-.143301,
-.292101,-.146985,
-.283682,-.14924,
-.275,-.15,
.275,-.15,
.283682,-.14924,
.292101,-.146985,
.3,-.143301,
.307139,-.138302,
.313302,-.132139,
.318301,-.125,
.321985,-.117101,
.32424,-.108682,
.325,-.1,
.325,.1,
.32424,.108682,
.321985,.117101,
.318301,.125,
.313302,.132139,
.307139,.138302,
.3,.143301,
.292101,.146985,
.283682,.14924,
.275,.15,
-.275,.15,
-.283682,.14924,
-.292101,.146985,
-.3,.143301,
-.307139,.138302,
-.313302,.132139,
-.318301,.125,
-.321985,.117101,
-.32424,.108682,
-.325,.1,
0.0*
%
%ADD22MACRO22*%
%AMMACRO21*
4,1,40,.1,.325,
-.1,.325,
-.108682,.32424,
-.117101,.321985,
-.125,.318301,
-.132139,.313302,
-.138302,.307139,
-.143301,.3,
-.146985,.292101,
-.14924,.283682,
-.15,.275,
-.15,-.275,
-.14924,-.283682,
-.146985,-.292101,
-.143301,-.3,
-.138302,-.307139,
-.132139,-.313302,
-.125,-.318301,
-.117101,-.321985,
-.108682,-.32424,
-.1,-.325,
.1,-.325,
.108682,-.32424,
.117101,-.321985,
.125,-.318301,
.132139,-.313302,
.138302,-.307139,
.143301,-.3,
.146985,-.292101,
.14924,-.283682,
.15,-.275,
.15,.275,
.14924,.283682,
.146985,.292101,
.143301,.3,
.138302,.307139,
.132139,.313302,
.125,.318301,
.117101,.321985,
.108682,.32424,
.1,.325,
0.0*
%
%ADD21MACRO21*%
%ADD48C,1.1*%
%ADD26R,2.15X4.4*%
%ADD24R,1.15X1.35*%
%ADD10R,.6X.6*%
%ADD46C,1.3*%
%ADD40R,.55X.3*%
%ADD33C,1.4*%
%ADD19C,1.5*%
%ADD47R,4.0632X2.051*%
%ADD44R,1.65X2.35*%
%ADD43O,.85X.35*%
%ADD42O,.35X.85*%
%ADD45R,1.3X1.3*%
%ADD35R,.38X.8*%
%ADD16R,1.05X1.8534*%
%ADD14R,1.95X1.65*%
%ADD37R,.7X.87*%
%ADD23R,3.5X3.5*%
%ADD18R,.56X.78*%
%ADD13C,1.8534*%
%ADD41R,2.85X2.85*%
%ADD17R,.9144X.6096*%
%ADD28R,.8128X.7564*%
%ADD15R,.939X.8596*%
%ADD12R,.8596X.939*%
%ADD49C,.1*%
G75*
%LPD*%
G75*
G54D10*
X19975000Y18721980D03*
G54D20*
X21424850Y17177920D03*
Y17312920D03*
G54D11*
X20525000Y17745000D03*
X21000000Y15837500D03*
X20587500Y18460000D03*
X21090000Y17750000D03*
X21115000Y18905000D03*
X21427500Y19082500D03*
X21242940Y19476320D03*
X21621680Y15747440D03*
X21555000Y16105000D03*
X21550000Y17635000D03*
X21710000Y17632500D03*
X21763320Y18771170D03*
X21757500Y19200000D03*
X21700000Y19455000D03*
X21937500Y19202500D03*
X22245000Y17970000D03*
X22116080Y17953580D03*
Y17803580D03*
X22351580Y18470450D03*
X22070630Y18716490D03*
X22194610Y18714480D03*
X22367500Y18275000D03*
X22337960Y18713090D03*
X22251230Y18540370D03*
X22365000Y19210000D03*
X22180000Y19685000D03*
X22902500Y14500000D03*
X22662500Y16450000D03*
X22702500Y17282500D03*
X22575000Y17355000D03*
X22449830Y18367660D03*
X22728130Y18363460D03*
X22595000Y19797500D03*
X23082500Y17127500D03*
X23101530Y18564850D03*
X23367240Y18648760D03*
X23166350Y18920060D03*
X23303930Y18808180D03*
X22982160Y19224550D03*
X23685000Y19795000D03*
X24062500Y18995000D03*
X24587500Y14765000D03*
X24529110Y14838360D03*
X24440000Y15247500D03*
X24709090Y17867950D03*
X25185000Y14765000D03*
X24839800Y14838730D03*
X24949460Y14800210D03*
X25223100Y14839110D03*
X25030000Y15117500D03*
X24975000Y15575000D03*
X24837500Y15500000D03*
X25100000Y15800000D03*
X25217500Y17102500D03*
X24905000Y17740000D03*
X25202120Y17971470D03*
X25327500Y15200000D03*
X25351490Y16850830D03*
X25528890Y16856070D03*
X25667500Y17102500D03*
X25265000Y17767500D03*
X25350000Y17650000D03*
X25662500Y17767500D03*
X25550000Y17640000D03*
X25450000Y19977500D03*
X26121000Y15712000D03*
X25975000Y15745000D03*
X26132500Y16305000D03*
X25975020Y16380370D03*
X26092650Y16385850D03*
X25839410Y17866900D03*
X25877500Y20217500D03*
X26312500Y16087500D03*
X26277500Y16162500D03*
X26500000Y16494000D03*
X26822500Y14815000D03*
G54D12*
X20352870Y18723570D03*
X20223650D03*
X22117780Y18275650D03*
X22247000D03*
X22116080Y18101280D03*
X22245300D03*
G54D21*
X21487170Y18160320D03*
Y18640320D03*
X21837170Y18160320D03*
X21787170D03*
X21737170D03*
X21687170D03*
X21637170D03*
X21587170D03*
X21537170D03*
Y18640320D03*
X21587170D03*
X21637170D03*
X21687170D03*
X21737170D03*
X21787170D03*
X21837170D03*
G54D30*
X24320320Y14115110D03*
X25450320D03*
G54D13*
X20888150Y14657940D03*
X21396150D03*
X28194000Y17526000D03*
Y18034000D03*
G54D40*
X25550000Y17767610D03*
Y17717610D03*
X25350000D03*
Y17767610D03*
X25550000Y17917610D03*
Y17867610D03*
Y17817610D03*
X25350000D03*
Y17867610D03*
Y17917610D03*
G54D22*
X21422170Y18225320D03*
Y18275320D03*
Y18325320D03*
Y18375320D03*
Y18425320D03*
Y18475320D03*
Y18525320D03*
Y18575320D03*
X21902170Y18225320D03*
Y18575320D03*
Y18525320D03*
Y18475320D03*
Y18425320D03*
Y18375320D03*
Y18325320D03*
Y18275320D03*
G54D31*
X24010230Y16192330D03*
Y16092330D03*
G54D41*
X25975850Y16027980D03*
G54D23*
X21662170Y18400320D03*
G54D14*
X20865850Y16375220D03*
X21265850D03*
G54D32*
X24310000Y19143110D03*
X24500000D03*
X25972790Y20225170D03*
Y20415170D03*
G54D15*
X20951290Y17750000D03*
X20701290Y17745780D03*
X20951290Y17879220D03*
X20701290Y17875000D03*
X20589470Y18723910D03*
Y18594690D03*
X21117320Y18653680D03*
Y18782900D03*
X21325000Y18950000D03*
Y19079220D03*
X21554860Y16245420D03*
Y16374640D03*
X21550690Y17787680D03*
X21709000Y17790120D03*
X21550690Y17916900D03*
X21709000Y17919340D03*
X21943130Y18958930D03*
Y19088150D03*
X21760270Y18958930D03*
Y19088150D03*
X22368320Y18958930D03*
Y19088150D03*
X23082780Y16898940D03*
Y17028160D03*
X25021910Y17738980D03*
Y17868200D03*
X26692820Y14685300D03*
Y14814520D03*
G54D42*
X26075850Y15827980D03*
X26025850D03*
X25975850D03*
X25925850D03*
X25875850D03*
Y16227980D03*
X25925850D03*
X25975850D03*
X26025850D03*
X26075850D03*
G54D33*
X24068670Y20126470D03*
Y20576470D03*
X24718670Y20126470D03*
Y20576470D03*
G54D24*
X21848130Y19456980D03*
Y19686980D03*
X22038130D03*
Y19456980D03*
G54D16*
X20701290Y18175000D03*
X20951290D03*
G54D43*
X25775850Y15927980D03*
Y15977980D03*
Y16027980D03*
Y16077980D03*
Y16127980D03*
X26175850D03*
Y16077980D03*
Y16027980D03*
Y15977980D03*
Y15927980D03*
G54D34*
X24450820Y14651610D03*
X25319820D03*
G54D25*
X22193910Y16668000D03*
X22320910D03*
X22447910D03*
X22193910Y17075000D03*
X22320910D03*
X22447910D03*
X22574910Y16668000D03*
X22701910D03*
X22574910Y17075000D03*
X22701910D03*
G54D17*
X20790490Y18723620D03*
X20914950D03*
G54D35*
X24660320Y14552000D03*
X24710320D03*
X24760320D03*
X24735320Y14682000D03*
X24685320D03*
X24635320D03*
X24585320D03*
X24810320Y14552000D03*
X24860320D03*
X24910320D03*
X24960320D03*
X25010320D03*
X25060320D03*
X25110320D03*
X25185320Y14682000D03*
X25135320D03*
X25085320D03*
X25035320D03*
X24985320D03*
X24935320D03*
X24835320D03*
X24785320D03*
G54D44*
X26075170Y19136120D03*
Y19536120D03*
G54D26*
X22682350Y14500570D03*
Y15420570D03*
G54D18*
X20925090Y18524910D03*
X21017090D03*
G54D45*
X26640410Y19074960D03*
G54D27*
X22854260Y18649380D03*
Y18959380D03*
G54D36*
X24572820Y14552000D03*
X25197820D03*
G54D28*
X22700830Y19795770D03*
Y19950150D03*
X23323680Y17052170D03*
Y16897790D03*
X23165240Y20444630D03*
Y20290250D03*
X23705070Y19143110D03*
Y18988730D03*
X23580250Y19790880D03*
Y19945260D03*
X23942570Y19143110D03*
Y18988730D03*
X24440550Y14950010D03*
Y15104390D03*
X25326790Y14955880D03*
Y15110260D03*
X25351040Y16952670D03*
Y17107050D03*
X25528100Y16952670D03*
Y17107050D03*
X25445520Y20089510D03*
Y20422490D03*
Y20576870D03*
Y20243890D03*
G54D37*
X24757650Y15116400D03*
X24922650D03*
G54D19*
X20834720Y20482090D03*
Y20228090D03*
X21088720Y20482090D03*
X21342720D03*
X21088720Y20228090D03*
X21342720D03*
X27656410Y19074960D03*
X28418410D03*
G54D46*
X26640410Y20090960D03*
G54D47*
X26863980Y16492780D03*
Y16764000D03*
G54D38*
X24405000Y19343110D03*
X26172790Y20320170D03*
G54D29*
X23303930Y19944880D03*
Y19784880D03*
X22982050Y19948790D03*
Y19788790D03*
G54D48*
X28052310Y14881030D03*
Y14676030D03*
G54D39*
X25450000Y17817610D03*
G54D49*
G01X19362500Y13929140D02*
Y20925000D01*
X28963430D01*
Y13929000D01*
X25340000D01*
Y14499000D01*
X24422500D01*
Y13929140D01*
X19362500D01*
M02*
